# xmcd CD database file
#
# Track frame offsets:
#	150
#	21720
#	46538
#	51440
#	67130
#	97086
#	116193
#	136011
#	160049
#	178713
#
# Disc length: 2444 seconds
#
# Revision: 1
# Processed by: cddbd v1.5.2PL0 Copyright (c) Steve Scherf et al.
# Submitted via: CDex 1.70beta2
#
DISCID=8e098a0a
DTITLE=Kyoji Yamamoto - Electric Cinema
DYEAR=1982
DGENRE=J-Metal
TTITLE0=I'll Wait A Lifetime
TTITLE1=Could This Be Magic
TTITLE2=Yomegashima
TTITLE3=Love Someone
TTITLE4=Smile Away
TTITLE5=Just Can't Take It
TTITLE6=On The Edge
TTITLE7=Saturn
TTITLE8=Love Lies Bleeding
TTITLE9=E.Bow Concerto In D Minor
EXTD=YEAR: 1982
EXTT0=
EXTT1=
EXTT2=
EXTT3=
EXTT4=
EXTT5=
EXTT6=
EXTT7=
EXTT8=
EXTT9=
PLAYORDER=
